# xmcd
#
# Track frame offsets: 
#        150
#        17020
#        39603
#        58512
#        77147
#        94409
#        111951
#        125798
#        145374
#        160413
#        171091
#        190987
#        206022
#        220474
#        241099
#        256820
#        277282
#        292855
#        308397
#        320026
#
# Disc length: 4485 seconds
#
# Revision: 2
# Processed by: cddbd v1.5.2PL0 Copyright (c) Steve Scherf et al.
# Submitted via: ExactAudioCopyFreeDBPlugin 1.0
#
DISCID=30118314
DTITLE=Various Artist - 2014 - After The Storm Cd 2
DYEAR=2014
DGENRE=Country
TTITLE0=Ilse Delange and Rob Crosby - I'll Know
TTITLE1=Lionel Richie feat. Waylon - You Are
TTITLE2=Kenny Rogers and Dolly Parton - Islands In The Stream
TTITLE3=Rascal Flatts - My Wish
TTITLE4=Billy Ray Cyrus and Miley Cyrus - Ready, Set, Don't Go
TTITLE5=Taylor Swift - Tim McGraw
TTITLE6=Amos Lee and Lucinda Williams - Clear Blue Eyes
TTITLE7=Brad Paisley and Alison Krauss - Whiskey Lullaby
TTITLE8=Vince Gill and Dolly Parton - I Will Always Love You
TTITLE9=Reba McEntire and Jacky Ward - I'd Really Love To See You Tonigh
TTITLE9=t
TTITLE10=Mark Wills - When You Think Of Me
TTITLE11=John Hiatt and Rosanne Cash - The Way We Make A Broken Heart
TTITLE12=Keith Urban and Miranda Lambert - We Were Us
TTITLE13=Bonnie Raitt and Ray Charles - Do I Ever Cross Your Mind
TTITLE14=Waylon Jennings and Willie Nelson - It's Not Supposed To Be Tha
TTITLE14=t Way
TTITLE15=Sugarland - Little Miss
TTITLE16=Florida Georgia Line and Sarah Buxton - Dayum, Baby
TTITLE17=Dierks Bentley and Karen Fairchild - When You Gonna Come Around
TTITLE18=Glen Campbell and Bobbie Gentry - All I Have To Do Is Dream
TTITLE19=The Civil Wars - Poison and Wine
EXTD=CD 2
EXTT0=
EXTT1=
EXTT2=
EXTT3=
EXTT4=
EXTT5=
EXTT6=
EXTT7=
EXTT8=
EXTT9=
EXTT10=
EXTT11=
EXTT12=
EXTT13=
EXTT14=
EXTT15=
EXTT16=
EXTT17=
EXTT18=
EXTT19=
PLAYORDER=
